<svg xmlns="http://www.w3.org/2000/svg" xmlns:xlink="http://www.w3.org/1999/xlink" width="211" height="271" viewBox="0 0 211 271" version="1.1">
    <!-- Generator: Sketch 52.6 (67491) - http://www.bohemiancoding.com/sketch -->
    <title>6076d7df4e38902c36e6e0d8_lines-10-white</title>
    <desc>Created with Sketch.</desc>
    <g id="Page-1" stroke="none" stroke-width="1" fill="none" fill-rule="evenodd">
        <g id="Artboard" transform="translate(-98.000000, -77.000000)" fill="#000000">
            <g id="6076d7df4e38902c36e6e0d8_lines-10-white" transform="translate(98.000000, 77.000000)">
                <path d="M1.4132,85.3747 C0.5557,66.9616 6.7837,48.4582 18.74321,34.4228 C24.79065,27.2922 32.32741,21.1996 41.0375,17.6343 C49.7025,14.0239 60.8046,12.57973 69.1988,17.7246 C76.555,22.2376 79.7593,30.8575 81.5645,38.8455 C83.8661,48.9547 84.9041,59.4249 85.7616,69.7597 C87.3862,90.2037 85.6713,111.37 91.4028,131.272 C95.6451,146.03 105.1676,160.697 119.7897,166.88 C137.21,174.236 157.293,166.79 172.231,157.042 C186.989,147.339 198.948,132.13 199.941,113.942 C200.392,105.503 198.271,96.7024 193.036,89.978 C188.162,83.7501 180.535,79.6883 172.547,80.0494 C165.055,80.3653 158.196,84.9686 155.307,91.9638 C153.231,96.9732 153.231,107.308 160.813,107.534 C163.747,107.624 166.635,105.728 168.124,103.246 C169.975,100.1323 169.523,96.206 168.124,93.0469 C164.378,84.5173 152.554,79.914 152.103,69.85 C151.877,64.9759 155.668,60.7788 160.452,60.2372 C161.31,60.147 161.31,58.7931 160.452,58.8833 C153.592,59.6957 149.35,66.2395 151.245,72.8737 C153.773,81.6741 163.386,85.5101 166.906,93.6787 C168.756,97.9661 168.35,103.382 163.656,105.593 C158.466,108.03 155.352,102.795 155.397,98.1917 C155.488,89.3462 163.34,82.1705 171.87,81.4936 C180.941,80.7715 189.381,86.0968 193.939,93.7238 C198.677,101.6216 199.625,111.325 197.775,120.215 C194.029,138.493 179.813,152.122 163.792,160.471 C155.217,164.939 145.74,168.324 135.991,168.595 C127.056,168.82 118.5261,166.022 111.5309,160.517 C97.4954,149.505 91.5834,131.814 89.5976,114.709 C88.4694,104.871 88.3791,94.9424 88.0181,85.0588 C87.657,74.8594 86.8898,64.7051 85.5359,54.5508 C83.6856,40.5153 81.745,20.8386 66.4007,14.9265 C50.5149,8.7888 32.55304,18.5369 21.49614,29.5938 C9.9879,41.1923 2.5866,56.6719 0.5557,72.8737 C0.0142,77.0708 -0.1212,81.2679 0.1044,85.5101 C0.1044,86.2322 1.4583,86.2322 1.4132,85.3747 Z" id="Path"/>
                <path d="M120.1512,132.581 C124.754,130.821 129.629,132.445 133.149,135.74 C136.849,139.215 138.429,144.044 137.932,149.053 C136.759,160.697 126.921,168.595 117.9398,174.687 C102.9566,184.841 83.1444,198.651 83.3701,219.005 C83.4603,227.399 87.3867,235.793 95.1942,239.539 C103.5884,243.556 113.4268,241.886 121.3697,237.689 C125.657,235.432 129.538,232.454 133.239,229.295 C137.346,225.775 141.498,222.074 144.792,217.741 C147.59,214.041 149.711,209.798 150.253,205.15 C150.749,201.088 150.027,195.898 146.733,193.055 C139.918,187.188 128.139,200.772 135.766,205.601 C137.932,207 140.55,206.865 143.032,207 C145.83,207.181 148.538,207.858 151.02,209.167 C155.894,211.694 159.64,216.072 161.22,221.352 C161.49,222.164 162.799,221.848 162.528,220.991 C160.362,213.815 154.405,208.083 147.094,206.233 C143.438,205.331 133.104,206.639 134.728,200.231 C136.127,194.77 143.619,189.67 147.365,195.898 C150.073,200.411 149.26,206.414 147.274,211.017 C145.153,215.846 141.543,219.817 137.752,223.428 C130.757,230.062 122.9041,236.922 113.3817,239.494 C104.2654,241.976 93.5244,239.991 88.199,231.506 C83.3701,223.789 84.0019,213.905 87.7928,205.917 C91.8997,197.297 99.0754,190.347 106.4767,184.48 C114.2391,178.298 123.355,173.694 130.351,166.609 C136.624,160.245 141.814,150.227 138.384,141.155 C135.676,133.98 127.462,128.429 119.7902,131.317 C118.9778,131.588 119.2937,132.897 120.1512,132.581 Z" id="Path"/>
                <g id="Group" transform="translate(123.000000, 0.000000)">
                    <path d="M39.9,5.9 C30,-0.9 15.6,-2.8 6.5,6.4 C-1.5,14.4 -1.5,31.4 6.5,39.5 C15,48.3 30.3,47.5 39.5,40.4 C44.4,36.5 46.3,30.7 46.8,24.7 C47,21.6 47.1,18.2 46.4,15.1 C45.7,12.1 42.5,8.9 40.8,6.4 C40.3,5.7 39.3,6.4 39.7,7 C42.9,11.6 45.6,15.2 45.7,21 C45.8,27.2 44.8,32.6 40.8,37.5 C33.2,46.6 14.3,47.8 6.8,37.7 C0.1,28.8 0.2,15.6 7.4,7.3 C15.4,-2 30.4,0.9 39.3,7.1 C40,7.5 40.6,6.4 39.9,5.9 Z" id="Path"/>
                    <path d="M39.8,6.9 C43.1,7.5 48,5.4 47.3,1.4 C47.2,0.6 45.9,0.9 46.1,1.7 C46.7,4.7 42.4,6.1 40.1,5.7 C39.3,5.6 39,6.8 39.8,6.9 Z" id="Path"/>
                    <path d="M24.7,20.1 C25.9,20.8 26.6,21.7 27,23 C27.7,25.2 25.8,26.2 23.9,26.3 C22.3,26.3 21,25.2 20.6,23.7 C20,21.6 22.3,20.1 24.1,20.6 C24.9,20.8 25.2,19.6 24.4,19.4 C22,18.8 19.9,20.1 19.3,22.5 C18.8,24.8 20.7,26.9 22.7,27.5 C24.5,28 27.9,27.3 28.2,25 C28.5,22.6 27.3,20.3 25.2,19.1 C24.6,18.6 24,19.7 24.7,20.1 Z" id="Path"/>
                    <path d="M14.8,6.6 C17.1,9.2 17.3,12.8 19.3,15.6 C19.5,15.8 19.8,16.1 20.1,16.1 C20.6,16.1 21.2,15.8 21.7,15.6 C23.5,14.9 25.5,15.6 27,16.6 C27.3,16.8 27.7,16.7 27.9,16.4 C29.5,13.4 31.5,10.5 32.8,7.4 C33.2,6 31.9,5.3 31,5 C25.6,3.2 19.3,2.7 14.3,5.7 C13.6,6.1 14.2,7.2 14.9,6.8 C19.1,4.3 23.7,4.7 28.4,5.7 C29.2,5.9 30,6.1 30.7,6.3 C32.1,6.7 29.6,10.6 29.3,11.2 C28.4,12.7 27.9,15.4 25.9,14.5 C24.9,14 23.7,14.1 22.6,14.1 C20.8,14.2 20.6,15.3 19.5,13.4 C18,10.8 17.8,8 15.7,5.7 C15.2,5.1 14.3,6 14.8,6.6 Z" id="Path"/>
                    <path d="M15.9,19.1 C15,21.7 14.9,24 15.7,26.6 C15.9,27.2 11.5,29.4 11,29.7 C9.2,30.7 7.5,32.1 6.6,29.4 C5.3,25.7 5,21.9 5.9,18.1 C7.2,12.9 14,17.6 16.2,20 C16.8,20.6 17.6,19.7 17.1,19.1 C15,16.9 12.5,15.7 9.6,14.7 C7.4,13.9 6.7,13.5 5.5,15.6 C3,20.2 3.4,28.8 6.7,33 C6.8,33.2 7.1,33.2 7.3,33.2 C8.8,32.8 10.2,31.7 11.5,30.9 C13,30 15,29.2 16.3,28.1 C16.7,27.8 17,27.6 16.9,27.1 C16.5,24.4 16,22.3 17,19.6 C17.4,18.7 16.2,18.3 15.9,19.1 Z" id="Path"/>
                    <path d="M19.9,31.1 C21.9,32.1 23.7,32.3 25.8,31.8 C27.3,31.4 27.8,31.4 28.6,33.1 C29.2,34.3 32.3,38.9 30.2,39.7 C26.7,41 22.7,41.5 19.1,40.8 C16.1,40.3 16.5,38 17.4,36 C18,34.6 18.6,31.7 20.1,31 C20.8,30.6 20.2,29.5 19.5,29.9 C17.9,30.8 17.5,32.7 16.8,34.3 C16.2,35.6 14.7,37.8 14.7,39.3 C14.8,42.1 20.1,42.2 22,42.3 C24.2,42.4 26.4,41.9 28.5,41.4 C29.5,41.2 31.5,40.9 32.1,39.9 C32.7,38.9 32.4,37.9 31.9,37 C30.8,34.7 29.9,31.7 28.3,29.7 C28.2,29.5 27.9,29.5 27.7,29.5 C25,30.3 23.4,31.4 20.5,29.9 C19.8,29.7 19.2,30.8 19.9,31.1 Z" id="Path"/>
                    <path d="M30.3,19.7 C31.3,21.9 30.9,23.6 30.7,25.9 C30.6,26.7 30.6,26.8 31.3,27.3 C32.5,28.3 34.4,28.8 35.8,29.4 C37.6,30.2 39.4,31.1 41.3,31.9 C41.6,32.1 42.1,32 42.2,31.5 C43.4,25.6 42.8,19.9 40.5,14.3 C40.4,14 39.9,13.9 39.6,14.1 C36.7,15.9 32.9,16.5 30.3,18.7 C29.7,19.2 30.6,20.1 31.2,19.6 C32.8,18.3 34.6,18 36.4,17.2 C37.1,16.9 37.7,16.6 38.3,16.3 C39.9,15.5 40,16.6 40.4,18 C41.8,22.2 41.8,26.8 40.9,31.2 C41.2,31.1 41.5,31 41.8,30.8 C38.9,29.4 36,28.1 33.1,26.7 C31.8,26.1 32.4,23.6 32.4,22.5 C32.4,21.2 31.9,20.1 31.4,19 C31.1,18.4 30,19 30.3,19.7 Z" id="Path"/>
                </g>
                <g id="Group" transform="translate(163.000000, 225.000000)">
                    <path d="M1.4,12.1 C8.6,9.4 16.2,8 23.6,6.1 C27.7,5 31.8,3.9 35.9,2.6 C38.2,1.9 39.9,0.3 41.2,3.7 C41.7,4.9 42.2,6.1 42.6,7.3 C41.2,8.3 39.7,9 38,9.5 C34.9,10.6 31.6,11 28.4,11.5 C24.5,12.2 21,13.6 17,14.1 C13.5,14.6 10.3,16 7,17.3 C3.6,18.6 3.3,13.9 1.8,11.4 C1.4,10.7 0.3,11.3 0.7,12 C2.1,14.3 3,16.6 3.4,19.2 C3.5,19.5 3.9,19.7 4.2,19.6 C12.2,16.6 20.3,14.3 28.7,12.6 C31.1,12.1 44.4,10.9 43.7,6.9 C43.5,5.9 42,0.5 40.6,0.2 C37.6,-0.3 33.3,2.1 30.3,3 C20.6,5.8 10.5,7.4 1,10.9 C0.3,11.2 0.6,12.4 1.4,12.1 Z" id="Path"/>
                    <path d="M2,11.7 C3.1,12.9 4.6,13.3 6,14.1 C6.8,14.6 7.4,15.2 8.2,15.6 C9.1,16.1 10,16.4 11,16.8 C11.8,17.1 12.1,15.9 11.3,15.6 C9.7,15 8.4,14.3 7.1,13.3 C5.8,12.3 4.1,12 2.9,10.8 C2.4,10.2 1.5,11.1 2,11.7 Z" id="Path"/>
                    <path d="M8.9,9.8 C11.3,11.5 13.7,13.1 16.2,14.6 C16.9,15 17.5,13.9 16.8,13.5 C14.3,12 11.9,10.3 9.5,8.7 C8.8,8.2 8.2,9.3 8.9,9.8 Z" id="Path"/>
                    <path d="M15.8,8.1 C18.5,9.2 20.9,11.2 23.3,12.8 C24,13.3 24.6,12.2 23.9,11.7 C21.4,10 18.9,7.9 16.1,6.8 C15.3,6.6 15,7.8 15.8,8.1 Z" id="Path"/>
                    <path d="M22.9,6.5 C25.7,8.2 28.6,9.9 31.3,11.7 C32,12.1 32.6,11.1 31.9,10.6 C29.1,8.8 26.3,7.1 23.5,5.4 C22.8,5 22.2,6.1 22.9,6.5 Z" id="Path"/>
                    <path d="M30.1,4.5 C33,6.3 35.8,8 38.7,9.8 C39.4,10.2 40,9.1 39.3,8.7 C36.4,6.9 33.6,5.2 30.7,3.4 C30.1,3 29.5,4.1 30.1,4.5 Z" id="Path"/>
                    <path d="M35.8,2.2 C37.9,3.3 40,4.5 42.2,5.6 C42.9,6 43.5,4.9 42.8,4.5 C40.7,3.4 38.6,2.2 36.4,1.1 C35.7,0.7 35.1,1.8 35.8,2.2 Z" id="Path"/>
                    <path d="M3.6,19.8 C5.6,26.2 4.5,33 5.3,39.6 C5.8,43.3 8.8,44.6 12.1,45.1 C18,46 24.5,45.2 30.5,44.7 C33.7,44.4 36.8,43.9 39.9,43.5 C41.5,43.3 45.2,43.3 46.4,42.1 C48.7,39.8 47.1,32.5 47,29.6 C46.9,27.9 47.6,17.7 45.8,17.1 C43.9,16.5 41.5,16.9 39.6,16.9 C35.9,16.9 32.3,16.9 28.6,17 C20.7,17.2 12.7,17.9 4.8,18.5 C4,18.6 4,19.8 4.8,19.8 C14.6,19 24.3,18.3 34.1,18.2 C36.5,18.2 39,18.2 41.4,18.2 C45.4,18.2 45.2,20.7 45.4,23.9 C45.7,28.8 46,33.8 45.9,38.8 C45.8,42.3 43.9,41.7 41.4,42.1 C38.4,42.6 35.4,43.1 32.3,43.4 C27.4,44 22.4,44.2 17.4,44.2 C13.1,44.2 7.2,44.8 6.3,38.3 C6,36.1 6.2,33.7 6.1,31.5 C6.1,27.2 6,23.4 4.8,19.5 C4.6,18.7 3.3,19 3.6,19.8 Z" id="Path"/>
                    <path d="M5.4,27.5 C18.9,27.8 32.4,27.9 45.8,27.7 C46.6,27.7 46.6,26.4 45.8,26.4 C32.3,26.5 18.8,26.5 5.4,26.2 C4.6,26.2 4.6,27.5 5.4,27.5 Z" id="Path"/>
                    <path d="M24.8,30.7 C24.8,34.2 24.9,37.6 24.9,41.1 C24.9,41.9 26.2,41.9 26.2,41.1 C26.2,37.6 26.1,34.2 26.1,30.7 C26,29.9 24.8,29.9 24.8,30.7 Z" id="Path"/>
                    <path d="M4.6,19.7 C6.7,22 8.7,24.3 10.6,26.8 C11.1,27.4 12.2,26.8 11.7,26.2 C9.8,23.6 7.7,21.2 5.5,18.9 C5,18.2 4.1,19.1 4.6,19.7 Z" id="Path"/>
                    <path d="M11.4,19.1 C13.7,21.9 16.1,24.7 18.4,27.5 C18.9,28.1 19.8,27.2 19.3,26.6 C17,23.8 14.6,21 12.3,18.2 C11.8,17.6 10.9,18.5 11.4,19.1 Z" id="Path"/>
                    <path d="M18.5,18.7 C19.9,19.6 20.8,20.9 21.8,22.1 C23.1,23.7 24.4,25.4 25.6,27.1 C26.1,27.7 27.2,27.1 26.7,26.5 C24.5,23.5 22.3,19.7 19.1,17.7 C18.5,17.2 17.9,18.3 18.5,18.7 Z" id="Path"/>
                    <path d="M26.1,18.2 C27.3,19.4 28.2,21 29.1,22.3 C30.2,23.8 31.3,25.4 32.3,26.9 C32.8,27.6 33.8,26.9 33.4,26.3 C32.3,24.8 31.2,23.2 30.2,21.7 C29.2,20.2 28.2,18.6 27,17.3 C26.4,16.8 25.5,17.7 26.1,18.2 Z" id="Path"/>
                    <path d="M32.7,17.5 C34.8,20.8 37.2,24 39.6,27.1 C40.1,27.7 41.2,27.1 40.7,26.5 C38.3,23.4 35.9,20.2 33.8,16.9 C33.3,16.1 32.2,16.8 32.7,17.5 Z" id="Path"/>
                    <path d="M39.8,18 C41.8,20.6 43.7,23.1 45.7,25.7 C46.2,26.3 47.3,25.7 46.8,25.1 C44.8,22.5 42.9,20 40.9,17.4 C40.4,16.7 39.3,17.3 39.8,18 Z" id="Path"/>
                </g>
            </g>
        </g>
    </g>
</svg>